<?xml version="1.0" encoding="UTF-8"?>
<!-- Created with Inkscape (http://www.inkscape.org/) -->
<svg width="118" height="69.7" version="1.1" viewBox="0 0 118 69.7" xml:space="preserve" xmlns="http://www.w3.org/2000/svg"><defs><clipPath id="clipPath822"><path d="m0 157h238v-157h-238z"/></clipPath></defs><g transform="matrix(1.3 0 0 -1.3 -99.1 142)"><g transform="matrix(.39 0 0 .39 75 46)" clip-path="url(#clipPath822)"><g transform="translate(2.27 -.593)"><text transform="scale(1,-1)" x="-2.4378066" y="-27.130177" fill="#ffff00" font-family="Caveat" font-size="72px"><tspan x="-2.4378066 25.642197 58.042191 81.874191 105.27419 137.67418 161.50618 188.14618" y="-27.130177">Inventum</tspan></text><g transform="translate(114 162)"><path d="m0 0c28 0 50-22 50-50s-22-50-50-50-50 22-50 50 22 50 50 50" fill="#fff"/></g><g transform="translate(138 119)"><path d="m0 0c-5.4 11-17 15-23 15-7 0-18-3.8-24-15-5.4-11-1.1-21 4.2-28 5.3-6.9 5.9-9.9 6.2-12 0.33-1.7-0.73-4.3 1.3-6.1 2-1.8 12-2.1 12-2.1s9.7 0.27 12 2.1c2 1.8 0.95 4.4 1.3 6.1 0.33 1.7 0.88 4.7 6.2 12s9.7 17 4.3 28" fill="#ff0"/></g><g transform="translate(122 103)"><path d="m0 0h-3.1l0.01 0.95c0 2.8 1.3 5 3 5h0.17c1.6-0.048 2.9-1.4 2.9-3 0-1.7-1.3-3-3-3m-21 3c0 1.6 1.3 2.9 2.9 3h0.17c1.6 0 3-2.3 3-5l0.01-0.95h-3.1c-1.7 0-3 1.3-3 3m22 4.9c-0.29 0.053-0.58 0.09-0.88 0.09l-0.91-0.094c-2.3-0.44-4-2.5-4-4.9v-3h-7.9v3c0 2.5-1.7 4.5-4 4.9l-0.92 0.094c-0.3 0-0.6-0.037-0.89-0.09-2.4-0.39-4.2-2.4-4.2-4.9 0-2.8 2.2-5 5-5h3v-30h2v30h8v-30h2v30h3c2.8 0 5 2.2 5 5 0 2.5-1.8 4.5-4.2 4.9" fill="#ddb857"/></g><g transform="translate(84.6 139)"><path d="m0 0c-0.73 0.73-1.9 0.73-2.6 0-0.73-0.73-0.73-1.9 0-2.6l5.3-5.3c0.73-0.73 1.9-0.73 2.6 0 0.73 0.73 0.73 1.9 0 2.6zm60 0c-0.73 0.73-1.9 0.73-2.6 0l-5.3-5.3c-0.73-0.73-0.73-1.9 0-2.6 0.73-0.73 1.9-0.73 2.6 0l5.3 5.3c0.73 0.73 0.73 1.9 0 2.6m-47 9.3c-0.42 0.99-1.6 1.5-2.6 1-1-0.41-1.5-1.5-1.1-2.5l3-7.1c0.42-0.99 1.6-1.5 2.6-1 1 0.41 1.5 1.5 1.1 2.5zm33 1c-1 0.41-2.2-0.062-2.6-1l-3-7.1c-0.42-0.99 0.061-2.1 1.1-2.5 1-0.41 2.2 0.061 2.6 1l3 7.1c0.42 0.99-0.062 2.1-1.1 2.5m-18 4.1c-1.1 0-2-0.9-2-2v-8c0-1.1 0.9-2 2-2s2 0.9 2 2v8c0 1.1-0.9 2-2 2" fill="#3182ce"/></g><g transform="translate(105 73.1)"><path d="m0 0c-2 1.8-0.96 4.4-1.3 6.1-0.33 1.7-0.9 4.7-6.2 12-5.3 6.9-9.7 17-4.2 28 5.1 10 15 14 22 15-0.52 0.037-1 0.061-1.5 0.061-7 0-18-3.8-24-15-5.4-11-1.1-21 4.2-28 5.3-6.9 5.9-9.9 6.2-12 0.33-1.7-0.73-4.3 1.3-6.1 2-1.8 12-2.1 12-2.1s0.59 0.016 1.5 0.067c-2.8 0.16-8.8 0.65-10 2" fill="#d7b354"/></g><g transform="translate(123 103)"><path d="m0 0h-3.1l0.01 0.95c0 2.8 1.3 5 3 5h0.17c1.6-0.048 2.9-1.4 2.9-3 0-1.7-1.3-3-3-3m-21 3c0 1.6 1.3 2.9 2.9 3h0.17c1.6 0 3-2.3 3-5l0.01-0.95h-3.1c-1.7 0-3 1.3-3 3m22 4.9c-0.29 0.053-0.58 0.09-0.88 0.09l-0.91-0.094c-2.3-0.44-4-2.5-4-4.9v-3h-7.9v3c0 2.5-1.7 4.5-4 4.9l-0.92 0.094c-0.3 0-0.6-0.037-0.89-0.09-2.4-0.39-4.2-2.4-4.2-4.9 0-2.8 2.2-5 5-5h3v-30h2v30h8v-30h2v30h3c2.8 0 5 2.2 5 5 0 2.5-1.8 4.5-4.2 4.9" fill="#fff"/></g><g transform="translate(126 74.1)"><path d="m0 0c-2-1.8-12-2.1-12-2.1s-9.8 0.27-12 2.1c-0.64 0.58-0.97 1.2-1.1 1.9h-0.084v-12c4.1-1.1 8.5-1.7 13-1.7s8.9 0.6 13 1.7v12h-0.093c-0.16-0.69-0.49-1.3-1.1-1.9" fill="#efefef"/></g></g></g></g></svg>
